:SAMPLES-PER-SECOND 30
:FULLY-SPECIFIED
:DEGREES
17
root  72.9605 40.3293 -3.58808 -169.767 -88.8967 168.845
RightUpLeg  -0.0837979 -9.94892 -9.03134
RightLeg  3.76981 -2.35006 3.51406
RightFoot  -0.4628 -0.289913 3.00834
RightToes  2.91037e-010 0 -3.6325e-017
Spine  3.20874 0.131088 -1.02672
Spine1  2.50081 -0.458681 2.79468
HEad  -0.908653 0.655432 -0.728735
LeftShoulder1  0.862499 -2.10137 -7.78339
LeftArm  -21.0386 13.5347 -11.2962
LeftForeArm  7.56535 0.276658 0.231263
LeftHand  -0.244104 0.0205437 5.32207
RightShoulder  0.481606 0.0259538 5.92267
RightArm  -23.8433 -5.48052 5.51616
RightForeArm  4.7805 1.14434 1.28143
RightHand  -0.669551 1.16748 -11.9728
LeftUpLeg  4.39375 7.57303 7.48413
LeftLeg  1.91062 18.3637 -3.54876
LeftFoot  -2.95894 0.395033 -5.13386
LeftToes  1.46425e-010 1.43544e-010 6.23391e-011
18
root  72.9433 40.3197 -3.59183 -171.659 -88.8263 170.818
RightUpLeg  -0.291767 -9.91338 -8.96575
RightLeg  4.05076 -2.29558 3.47375
RightFoot  -0.670328 -0.28342 2.984
RightToes  2.91037e-010 0 -3.6325e-017
Spine  3.455 0.043598 -0.98369
Spine1  2.4311 -0.618639 3.12843
HEad  -0.68389 0.898959 -1.24022
LeftShoulder1  0.884125 -1.92147 -8.78519
LeftArm  -21.4646 13.7174 -11.0621
LeftForeArm  7.63615 -0.431775 0.33209
LeftHand  -0.244104 0.0205437 5.32207
RightShoulder  0.46993 -0.0217774 5.7581
RightArm  -24.5715 -5.42821 6.08967
RightForeArm  4.49864 1.40823 1.14458
RightHand  -0.688104 1.22333 -12.2049
LeftUpLeg  4.31397 7.69723 7.60968
LeftLeg  2.03611 18.2141 -3.63119
LeftFoot  -3.07945 0.407902 -5.39109
LeftToes  1.46425e-010 1.43544e-010 6.23391e-011
19
root  72.9233 40.3067 -3.61906 -176.166 -88.6184 175.428
RightUpLeg  -0.589156 -9.75273 -8.75631
RightLeg  4.41702 -2.24589 3.36636
RightFoot  -1.01938 -0.283883 3.06515
RightToes  2.91037e-010 0 -3.6325e-017
Spine  3.55256 0.00105078 -0.715981
Spine1  2.60583 -0.666594 3.10356
HEad  -0.333609 1.32853 -1.46473
LeftShoulder1  0.930111 -1.88819 -9.84095
LeftArm  -22.495 14.1207 -11.1918
LeftForeArm  8.11704 -1.85753 0.5661
LeftHand  -0.244104 0.0205437 5.32207
RightShoulder  0.515726 0.122887 6.56498
RightArm  -25.2676 -5.53242 6.28525
RightForeArm  3.24714 2.10914 1.15036
RightHand  -0.815202 1.95843 -13.0065
LeftUpLeg  4.15264 7.88529 7.82005
LeftLeg  2.35226 18.2699 -3.64001
LeftFoot  -3.2417 0.410269 -5.51757
LeftToes  1.46425e-010 1.43544e-010 6.23391e-011
20
root  72.8887 40.2877 -3.67455 178.847 -88.3118 -179.523
RightUpLeg  -0.900005 -9.44033 -8.39881
RightLeg  4.91326 -2.28676 3.14929
RightFoot  -1.56509 -0.292879 3.29931
RightToes  2.91037e-010 0 -3.6325e-017
Spine  3.43671 0.0062143 -0.276035
Spine1  3.16069 -0.629169 2.84025
HEad  0.0465161 1.73965 -1.50005
LeftShoulder1  1.01897 -1.98596 -11.2919
LeftArm  -24.0763 14.597 -11.721
LeftForeArm  9.30195 -4.27625 0.808018
LeftHand  -0.244104 0.0205437 5.32207
RightShoulder  0.610962 0.425798 8.0594
RightArm  -25.8189 -6.05163 6.6667
RightForeArm  -0.0451347 3.65879 1.47109
RightHand  -1.08915 3.07842 -15.0699
LeftUpLeg  4.05601 8.0871 8.09892
LeftLeg  2.7193 18.3705 -3.57475
LeftFoot  -3.47206 0.401938 -5.53968
LeftToes  1.46425e-010 1.43544e-010 6.23391e-011
21
root  72.8381 40.2631 -3.76391 175.746 -87.947 -176.482
RightUpLeg  -1.24616 -9.03279 -7.92111
RightLeg  5.76284 -2.39058 2.73771
RightFoot  -2.33401 -0.285942 3.42481
RightToes  2.91037e-010 0 -3.6325e-017
Spine  3.44832 0.0440383 0.149522
Spine1  3.7192 -0.56578 2.60701
HEad  0.36002 1.93076 -1.75971
LeftShoulder1  1.17729 -2.24132 -13.4104
LeftArm  -26.0136 15.3225 -12.5929
LeftForeArm  11.2682 -7.88063 0.889891
LeftHand  -0.244104 0.0205437 5.32207
RightShoulder  0.73361 0.828853 9.6092
RightArm  -26.1735 -7.1621 7.9951
RightForeArm  -4.25274 6.0934 2.07582
RightHand  -1.36867 3.74483 -17.5483
LeftUpLeg  4.19967 8.21626 8.38833
LeftLeg  2.93648 18.3963 -3.45588
LeftFoot  -3.69179 0.416472 -5.8963
LeftToes  1.46425e-010 1.43544e-010 6.23391e-011
22
root  72.7731 40.2355 -3.90017 175.536 -87.5785 -176.484
RightUpLeg  -1.62286 -8.75625 -7.39678
RightLeg  7.05859 -2.34626 2.14337
RightFoot  -3.31694 -0.246795 3.19077
RightToes  2.91037e-010 0 -3.6325e-017
Spine  3.7369 0.0820446 0.376853
Spine1  4.11577 -0.52389 2.50943
HEad  0.687635 1.92912 -2.32548
LeftShoulder1  1.42881 -2.7449 -16.0083
LeftArm  -28.884 16.5217 -13.9147
LeftForeArm  14.1848 -12.3522 0.577351
LeftHand  -0.244104 0.0205437 5.32207
RightShoulder  0.899649 1.38096 11.2555
RightArm  -26.2706 -8.72474 10.1811
RightForeArm  -6.43533 8.83512 2.71352
RightHand  -1.47999 3.79283 -18.8198
LeftUpLeg  4.59825 8.2883 8.65572
LeftLeg  3.01597 18.5228 -3.31743
LeftFoot  -3.79378 0.450118 -6.47484
LeftToes  1.46425e-010 1.43544e-010 6.23391e-011
23
root  72.6786 40.2024 -4.09628 176.531 -87.3539 -177.843
RightUpLeg  -1.80001 -8.72798 -6.92681
RightLeg  8.49636 -2.1464 1.60371
RightFoot  -4.49057 -0.197749 2.79233
RightToes  2.91037e-010 0 -3.6325e-017
Spine  3.96513 0.0729377 0.385424
Spine1  4.74069 -0.561554 2.54216
HEad  1.19394 1.99119 -2.81678
LeftShoulder1  1.73466 -3.34093 -18.7105
LeftArm  -33.5847 17.7482 -15.9439
LeftForeArm  18.4941 -16.674 -0.609718
LeftHand  -0.244104 0.0205437 5.32207
RightShoulder  1.12428 2.0358 13.3366
RightArm  -26.0075 -10.3774 12.7522
RightForeArm  -5.2922 11.2137 3.17281
RightHand  -1.52716 4.04655 -18.8985
LeftUpLeg  5.18559 8.40397 8.99186
LeftLeg  3.08915 18.6258 -3.20411
LeftFoot  -3.85408 0.466647 -6.77377
LeftToes  1.46425e-010 1.43544e-010 6.23391e-011
24
root  72.529 40.1605 -4.35105 176.558 -87.4157 -178.312
RightUpLeg  -1.58301 -8.98184 -6.56191
RightLeg  9.70792 -1.89668 1.35843
RightFoot  -5.79146 -0.163201 2.55807
RightToes  2.91037e-010 0 -3.6325e-017
Spine  3.80041 -0.0240466 0.370009
Spine1  5.82218 -0.718022 2.65649
HEad  1.98701 2.28806 -3.05506
LeftShoulder1  2.03069 -3.77389 -21.4569
LeftArm  -37.1999 18.1758 -18.619
LeftForeArm  21.8164 -19.6469 -2.06861
LeftHand  -0.244104 0.0205437 5.32207
RightShoulder  1.36267 2.58474 15.6377
RightArm  -25.2248 -12.0207 15.8161
RightForeArm  -2.07676 13.1146 3.4663
RightHand  -1.60172 4.65463 -18.6411
LeftUpLeg  5.91443 8.56066 9.49842
LeftLeg  3.13442 18.197 -3.11771
LeftFoot  -4.01391 0.477749 -7.08176
LeftToes  1.46425e-010 1.43544e-010 6.23391e-011
25
root  72.3178 40.1123 -4.65547 175.557 -87.7114 -177.684
RightUpLeg  -1.15167 -9.46287 -6.24732
RightLeg  10.6892 -1.65287 1.3487
RightFoot  -7.09512 -0.13697 2.39028
RightToes  2.91037e-010 0 -3.6325e-017
Spine  3.3559 -0.203616 0.525799
Spine1  6.95618 -0.943351 2.72191
HEad  3.04423 2.70041 -3.33973
LeftShoulder1  2.38713 -4.22903 -24.5681
LeftArm  -37.2316 17.7951 -21.0166
LeftForeArm  22.9521 -20.8491 -2.75565
LeftHand  -0.244104 0.0205437 5.32207
RightShoulder  1.55414 2.89608 17.7093
RightArm  -23.9625 -13.9859 19.8414
RightForeArm  1.52381 14.8243 3.69677
RightHand  -1.48936 4.34234 -17.8891
LeftUpLeg  6.64013 8.6856 10.1274
LeftLeg  3.14789 17.3159 -2.99013
LeftFoot  -4.22182 0.523592 -8.0018
LeftToes  1.46425e-010 1.43544e-010 6.23391e-011
26
root  72.0636 40.0566 -5.01129 174.432 -88.0746 -176.813
RightUpLeg  -0.780022 -9.96282 -5.85465
RightLeg  11.6836 -1.52581 1.33572
RightFoot  -8.33178 -0.109018 2.00311
RightToes  2.91037e-010 0 -3.6325e-017
Spine  3.0132 -0.434287 0.790169
Spine1  7.69819 -1.18235 2.72832
HEad  4.11602 3.17707 -3.8768
LeftShoulder1  2.97305 -5.1287 -28.2575
LeftArm  -34.4729 17.4616 -22.2649
LeftForeArm  23.5097 -20.7974 -2.80851
LeftHand  -0.244104 0.0205437 5.32207
RightShoulder  1.69795 3.02587 19.562
RightArm  -22.7954 -16.5085 24.9062
RightForeArm  4.35503 16.3905 3.85699
RightHand  -1.2211 3.04407 -16.9449
LeftUpLeg  7.13586 8.84976 10.845
LeftLeg  3.47833 16.6152 -2.76454
LeftFoot  -4.4395 0.570887 -9.01114
LeftToes  1.46425e-010 1.43544e-010 6.23391e-011
27
root  71.7836 39.9709 -5.42475 169.116 -88.4747 -171.815
RightUpLeg  -0.378515 -10.4075 -5.2742
RightLeg  12.8425 -1.53626 1.26275
RightFoot  -9.61101 -0.0879513 1.5262
RightToes  2.91037e-010 0 -3.6325e-017
Spine  3.06541 -0.760966 0.927733
Spine1  8.12805 -1.55856 3.02766
HEad  4.79854 3.96643 -4.59541
LeftShoulder1  3.73093 -6.2609 -32.1212
LeftArm  -30.7712 17.7491 -22.866
LeftForeArm  24.7456 -20.3696 -2.70577
LeftHand  -0.244104 0.0205437 5.32207
RightShoulder  1.82876 3.09398 21.3946
RightArm  -22.548 -19.266 30.6703
RightForeArm  6.30457 17.3633 3.89241
RightHand  -1.13401 2.60848 -16.5903
LeftUpLeg  7.30484 9.42759 11.8639
LeftLeg  4.70986 15.6217 -2.33264
LeftFoot  -4.97476 0.557451 -9.46785
LeftToes  1.46425e-010 1.43544e-010 6.23391e-011
28
root  71.4824 39.8207 -5.87865 144.798 -88.8697 -148.045
RightUpLeg  0.219487 -10.992 -4.50134
RightLeg  14.2863 -1.4841 1.28494
RightFoot  -11.1362 -0.077541 1.31142
RightToes  2.91037e-010 0 -3.6325e-017
Spine  3.61102 -1.31298 0.873953
Spine1  8.48089 -2.28836 4.03951
HEad  4.80042 5.3996 -5.43017
LeftShoulder1  4.25404 -6.78839 -35.2415
LeftArm  -27.9134 18.6444 -24.359
LeftForeArm  26.7158 -20.0531 -2.62566
LeftHand  -0.244104 0.0205437 5.32207
RightShoulder  1.97268 3.21455 23.1389
RightArm  -22.991 -21.6926 36.6729
RightForeArm  7.57728 17.1163 3.83414
RightHand  -1.11501 2.75943 -16.0091
LeftUpLeg  6.96027 11.525 13.3668
LeftLeg  7.48931 12.3866 -1.1898
LeftFoot  -6.08884 0.510551 -10.3674
LeftToes  1.46425e-010 1.43544e-010 6.23391e-011
